<?xml version="1.0" encoding="utf-8"?>
<!-- Generator: Adobe Illustrator 25.4.3, SVG Export Plug-In . SVG Version: 6.00 Build 0)  -->
<svg version="1.1" id="Capa_1" xmlns="http://www.w3.org/2000/svg" xmlns:xlink="http://www.w3.org/1999/xlink" x="0px" y="0px"
	 viewBox="0 0 207.27 99.33" style="enable-background:new 0 0 207.27 99.33;" xml:space="preserve">
<style type="text/css">
	.st0{fill:#E30613;}
	.st1{fill:#F6F6F6;}
	.st2{fill:#FFFFFF;}
</style>
<g>
	<path class="st0" d="M49.74,44.01c-1.1,0-1.36,0-1.88,1.62c-0.37,1.15-1.31,3.4-1.31,4.45c0,1.52,1.62,1.88,2.88,2.15
		c0.99,0.21,1.62,0.31,1.62,1.26c0,1.05-0.99,1.05-1.47,1.05c-0.68,0-3.09-0.16-4.55-0.16c-1.99,0-4.55,0.16-5.39,0.16
		c-0.47,0-1.52,0-1.52-1.05c0-0.94,0.99-1.1,1.94-1.31c1.41-0.16,1.88-0.37,3.4-4.34c2.98-7.64,5.96-15.28,8.95-22.86
		c0.31-0.73,0.73-1.99,0.94-2.77c0.16-0.63,0.68-1.46,3.51-1.46c2.72,0,3.03,0.58,3.3,1.26c1.99,4.76,9.36,23.54,11.77,27.83
		c0.73,1.15,1.62,2.41,3.14,2.51c0.47,0.05,1.52,0.21,1.52,1.2c0,0.89-0.99,0.99-1.57,0.99c-1.67,0-5.02-0.16-8.11-0.16
		c-1.46,0-6.07,0.16-7.64,0.16c-0.47,0-1.83,0-1.83-1.1c0-1.05,1.05-1.15,2.15-1.2c0.94,0,2.35-0.1,2.35-1.15
		c0-1.05-0.99-3.24-1.47-4.39c-1.05-2.67-0.89-2.67-2.72-2.67H49.74z M56.65,41.13c0.84,0,1.26-0.16,1.26-0.52
		c0-0.26-0.16-0.78-0.37-1.26c-1.05-2.62-2.09-5.18-3.09-7.85c-0.31-0.73-0.52-1.36-0.73-1.36c-0.26,0-0.47,0.78-0.78,1.57
		c-0.99,2.67-2.04,5.34-3.03,8.06c-0.16,0.42-0.26,0.78-0.26,0.94c0,0.31,0.26,0.42,0.89,0.42H56.65z"/>
	<path class="st0" d="M90.03,34.59c-1.62,0-1.94,0.31-1.94,2.35v12.03c0,2.35,0.1,3.51,2.04,3.66c0.89,0.1,1.67,0.16,1.67,1.05
		c0,0.84-0.73,0.84-1.1,0.84c-1.31,0-4.34-0.16-7.38-0.16c-3.14,0-4.87,0.16-6.17,0.16c-0.37,0-1.1,0-1.1-0.84
		c0-0.89,0.78-0.94,1.62-1.05c2.56-0.21,2.56-0.89,2.56-5.39V36.58c0-1.83,0-1.99-1.41-1.99c-1.62,0-2.56,0-2.56-1.1
		c0-1.1,0.84-1.26,2.51-1.67c1.31-0.37,1.31-1.05,1.73-2.82c1.05-5.34,5.86-10.46,15.64-10.46c7.22,0,8.84,3.61,8.84,4.45
		c0,1.62-1.99,3.45-4.19,3.45c-2.04,0-3.24-1.26-4.39-2.51c-1.15-1.31-2.2-2.56-4.13-2.56c-3.09,0-4.19,2.72-4.19,8.21
		c0,1.67,0.26,1.94,1.78,1.94h6.85c1.2,0,3.82-0.1,5.91-0.63c1.26-0.31,2.14-0.99,2.77-0.99c0.47,0,0.52,0.31,0.52,1.05v2.77v15.28
		c0,2.35,0.1,3.35,2.2,3.71c0.84,0.16,1.47,0.26,1.47,0.99c0,0.68-0.42,0.84-1.05,0.84c-2.14,0-4.29-0.16-6.44-0.16
		c-2.2,0-4.39,0.16-6.59,0.16c-0.42,0-1.15,0-1.15-0.84c0-0.89,0.78-0.94,1.57-1.05c2.14-0.21,2.14-1.1,2.14-4.24V38.15
		c0-3.03-0.21-3.56-3.03-3.56H90.03z"/>
	<path class="st0" d="M114.67,63.16c0-1.2,0.26-2.88,3.61-2.88c0.58,0,1.73,0.05,2.09,0c0.89-0.16,1.62-0.94,2.15-2.25
		c0.47-1.05,0.84-1.78,0.84-2.35c0-0.52-0.37-1.26-0.63-1.88c-2.83-5.75-5.6-11.46-8.37-17.16c-1.2-2.41-1.52-3.35-3.19-3.51
		c-0.31-0.05-1.15-0.1-1.15-0.84c0-0.89,0.78-0.94,1.67-0.94c1.1,0,2.77,0.16,7.43,0.16c3.61,0,4.66-0.16,5.75-0.16
		c0.26,0,1.05,0.05,1.05,0.84c0,0.68-0.78,0.89-1.2,0.94c-0.84,0.16-1.67,0.42-1.67,1.36c0,0.52,0.26,1.15,0.52,1.78
		c1.52,3.4,4.29,9.78,4.6,9.78c0.37,0,2.88-6.17,4.29-9.47c0.26-0.58,0.63-1.41,0.63-1.94c0-1.1-0.89-1.31-1.94-1.57
		c-0.31-0.05-0.89-0.16-0.89-0.78c0-0.73,0.58-0.94,1.31-0.94c1.1,0,2.04,0.16,3.51,0.16c1.73,0,2.77-0.16,3.61-0.16
		c0.52,0,1.36,0.05,1.36,0.99c0,0.63-0.68,0.73-1.36,0.94c-1.78,0.37-2.82,2.04-3.87,4.34c-3.09,6.8-6.12,13.65-9.16,20.46
		c-0.94,2.15-1.52,3.3-2.25,5.86c-0.42,1.52-0.73,2.56-4.39,2.56c-3.24,0-4.34-0.89-4.34-3.3V63.16z"/>
	<path class="st0" d="M149.78,41.13c-1.73,0-1.94,0.05-1.94,1.26c0,4.45,3.09,8.68,8.21,8.68c2.2,0,4.03-0.78,5.39-1.83
		c0.79-0.68,1.1-0.99,1.47-0.99c0.47,0,0.89,0.42,0.89,0.89c0,0.58-1.05,1.88-2.04,2.83c-2.04,1.83-5.02,3.19-9.26,3.19
		c-8.53,0-13.03-6.12-13.03-12.09c0-7.27,6.23-12.5,14.07-12.5c6.85,0,10.67,3.98,10.67,8.32c0,2.04-0.78,2.25-1.83,2.25H149.78z
		 M148.16,37.73c0,0.52,0.16,0.94,1.31,0.94c0.94,0,1.94,0,2.93-0.05c1.31-0.1,3.09-0.37,3.98-1.05c0.58-0.31,0.94-0.84,0.94-1.73
		c0-1.36-1.15-3.24-3.77-3.24c-3.09,0-5.39,2.77-5.39,5.07V37.73z"/>
	<path class="st0" d="M177.04,46.68c0,2.93,0.94,4.5,2.51,4.5c0.94,0,1.83-0.42,2.35-0.68c0.99-0.58,1.2-0.73,1.57-0.73
		c0.63,0,0.78,0.47,0.78,0.78c0,1.62-4.03,4.6-8.42,4.6c-2.3,0-3.82-0.63-4.97-1.67c-1.57-1.36-1.73-2.77-1.73-5.7V35.69
		c0-1.2-0.21-1.36-0.89-1.36c-0.52,0-1.1,0-1.67,0.05c-0.84,0-1.41-0.1-1.41-1.05c0-0.99,0.26-1.1,1.52-1.46
		c2.67-0.99,5.55-2.09,7.53-6.44c0.47-1.41,0.78-1.83,1.83-1.83c0.94,0,0.99,0.58,0.99,1.15v5.44c0,0.68,0,1.26,0.84,1.31
		c0.52,0,1.67-0.05,2.77-0.16c1.15-0.05,2.3-0.1,2.83-0.1c0.89,0,0.89,0.42,0.89,1.46c0,1.94-0.11,1.99-1.41,1.99
		c-0.99,0-2.88-0.1-4.08-0.1c-1.41,0-1.83,0-1.83,1.67V46.68z"/>
</g>
<g>
	<path class="st1" d="M24.54,92.88c-8.32,0-13.81-5.81-13.81-12.14c0-6.33,5.55-12.45,13.76-12.45c10.2,0,14.07,7.11,14.07,12.14
		c0,6.23-5.07,12.45-13.97,12.45H24.54z M25.06,90.57c4.03,0,5.23-6.43,5.23-9.1c0-5.7-1.99-10.88-5.81-10.88
		c-3.03,0-5.49,2.88-5.49,8.95c0,6.49,2.62,11.04,6.02,11.04H25.06z"/>
	<path class="st1" d="M44.68,64.89c0-3.51-0.05-3.66-2.72-4.08c-0.84-0.21-1.36-0.31-1.36-1.05c0-0.73,0.58-0.84,2.3-0.94
		c3.14-0.26,5.55-1.05,7.12-1.88c0.68-0.31,1.31-0.63,1.83-0.63c0.68,0,0.73,0.42,0.73,1.52V86.7c0,2.35,0.1,3.35,2.2,3.71
		c0.84,0.16,1.47,0.26,1.47,0.99c0,0.78-0.68,0.84-1.05,0.84c-1.67,0-3.92-0.16-6.17-0.16c-3.19,0-5.96,0.16-7.38,0.16
		c-0.42,0-1.15,0-1.15-0.84c0-0.89,0.78-0.94,1.67-1.05c2.51-0.21,2.51-0.84,2.51-5.39V64.89z"/>
	<path class="st1" d="M59.23,75.67c0-3.51,3.51-7.38,11.51-7.38c2.35,0,6.38,0.47,7.17,0.73c0.68,0.16,0.68,0.63,0.68,1.15v1.67
		v1.41c0,0.58-0.16,1.46-1.26,1.46c-0.94,0-1.15-0.89-2.2-2.35c-1.05-1.57-2.67-1.99-3.92-1.99c-1.62,0-3.45,1.05-3.45,2.72
		c0,2.09,2.04,2.72,5.23,3.98c2.88,1.05,6.85,2.67,6.85,7.01c0,4.92-5.55,8.79-12.29,8.79c-1.15,0-5.49-0.26-7.74-1.62
		c-0.42-0.21-0.68-0.47-0.89-0.84c-0.21-0.31-0.31-0.79-0.31-1.26c0-1.15,0.05-2.3,0.05-3.45c0-0.63,0.1-1.73,1.41-1.73
		c1.2,0,1.41,1.05,2.25,2.98c0.58,1.36,1.94,3.66,4.87,3.66c2.09,0,4.29-1.1,4.29-3.56c0-2.25-1.88-3.19-4.71-4.39
		c-3.19-1.31-7.53-2.93-7.53-6.96V75.67z"/>
	<path class="st1" d="M93.13,82.94c0,2.25,0.1,5.44,4.03,5.44c1.52,0,2.77-0.47,3.82-1.73c0.47-0.58,0.47-0.99,0.47-2.51v-9.47
		c0-2.25-0.1-3.45-1.73-3.61c-0.78-0.05-1.52-0.16-1.52-0.99c0-0.78,0.58-0.99,1.46-0.99c1.57,0,3.14,0.16,4.66,0.16
		c1.41,0,2.83-0.16,4.19-0.16c0.68,0,0.89,0.21,0.89,1.05c0,0.47-0.05,1.36-0.05,1.78v13.65c0,2.25,0.05,2.93,2.04,2.93
		c0.84,0,1.83,0,1.83,0.84c0,0.89-1.05,0.99-4.03,1.46c-1.2,0.31-4.13,1.05-5.81,1.78c-0.47,0.1-0.89,0.26-1.15,0.26
		c-0.42,0-0.63-0.47-0.63-0.99v-1.57c0-0.58-0.05-0.94-0.42-0.94c-0.21,0-0.58,0.26-0.94,0.58c-1.52,1.2-3.92,2.98-7.43,2.98
		c-2.77,0-4.66-0.94-5.91-2.51c-1.67-1.94-1.67-4.76-1.67-6.75v-9.05c0-2.41-0.05-3.3-2.2-3.61c-0.78-0.16-1.46-0.26-1.46-1.05
		c0-0.73,0.52-0.84,1.15-0.84c1.62,0,3.66,0.16,5.34,0.16c1.41,0,2.93-0.16,4.34-0.16c0.78,0,0.73,0.58,0.73,1.47V82.94z"/>
	<path class="st1" d="M118.14,77.03c0-2.2-0.1-2.83-1.83-3.03c-0.99-0.16-1.57-0.26-1.57-0.89c0-0.94,0.94-0.99,1.99-1.1
		c1.57-0.21,5.13-1.36,7.06-3.14c0.63-0.63,0.94-0.94,1.41-0.94c0.68,0,0.68,0.68,0.68,1.2v2.04c0,0.47,0,0.84,0.31,0.84
		c0.16,0,1.26-0.94,2.25-1.67c1.41-1.05,3.61-2.04,5.91-2.04c1.36,0,3.87,0.37,5.7,2.15c1.41,1.41,1.99,3.35,1.99,6.23V86.7
		c0,2.25,0.11,3.35,2.25,3.66c0.78,0.16,1.46,0.26,1.46,1.05c0,0.78-0.73,0.84-1.05,0.84c-1.52,0-5.13-0.16-7.22-0.16
		c-1.94,0-3.71,0.16-4.71,0.16c-0.42,0-1.05-0.1-1.05-0.84c0-0.68,0.47-0.73,1.1-1.1c1.36-0.31,1.36-1.2,1.36-3.61v-8.58
		c0-0.99,0-2.56-0.58-3.71c-0.63-1.1-1.73-1.94-3.3-1.94c-1.46,0-2.62,0.58-3.35,1.41c-0.94,0.99-0.99,2.04-0.99,3.19v9.68
		c0,2.46,0,3.24,1.46,3.56c0.37,0.11,0.99,0.26,0.99,0.94s-0.47,0.99-1.26,0.99c-1.05,0-3.66-0.16-6.02-0.16
		c-2.67,0-4.39,0.16-5.65,0.16c-0.31,0-1.1,0-1.1-0.84c0-0.78,0.63-0.89,1.46-1.05c2.25-0.37,2.25-1.1,2.25-5.39V77.03z"/>
</g>
<path class="st2" d="M142.04,58.76c5.46,8.71,19.11,16.23,33.7,13.34c16.64-3.3,28.47-18.05,28.05-34.49
	c-0.44-17.28-12.81-30.75-28.37-33.48c-16-2.81-29.01,5.86-33.63,13.81c6.28-5.4,13.1-8.04,20.91-7.41
	c7.83,0.63,14.36,4.07,19.31,10.16c8.72,10.72,8.31,25.99-0.99,36.09C172.43,66.13,156.52,70.27,142.04,58.76z"/>
<path class="st2" d="M25.52,70.13c0-3.72,0.05-7.44-0.03-11.16c-0.03-1.23,0.37-1.76,1.54-2.11c3.57-1.07,7.09-2.28,11.1-3.59
	c-3.92-1.3-7.39-2.53-10.92-3.57c-1.34-0.39-1.76-0.98-1.73-2.35c0.1-3.65,0.03-7.31-0.33-11.12c-1.65,2.27-3.3,4.53-4.95,6.8
	c-2.54,3.5-2.53,3.5-6.66,2.17c-2.63-0.85-5.27-1.68-8.17-2.19c1.86,2.57,3.71,5.15,5.57,7.72c1.83,2.53,1.83,2.52,0.03,5.01
	c-1.92,2.65-3.83,5.31-6.05,8.38c4.06-1.33,7.63-2.43,11.14-3.7c1.27-0.46,1.89-0.17,2.62,0.89c2.07,3.02,4.27,5.95,6.42,8.92
	C25.24,70.2,25.38,70.16,25.52,70.13z"/>
</svg>
